<?xml version="1.0" encoding="UTF-8"?>
<svg id="Layer_2" data-name="Layer 2" xmlns="http://www.w3.org/2000/svg" viewBox="0 0 405.53 713.87" fill="#ffffff">
  <g id="Final_Logo" data-name="Final Logo">
    <g>
      <path d="m368.76,236v-84.11c0-6.6-5.35-11.96-11.96-11.96h-187.25c-6.6,0-11.96-5.35-11.96-11.96V11.96c0-6.6-5.35-11.96-11.96-11.96H49.58c-6.6,0-11.96,5.35-11.96,11.96v367.17c0,112.82,67.19,166.37,165.53,166.37s165.61-53.55,165.61-166.37h0c0-6.6-5.35-11.96-11.96-11.96h-96.07c-6.6,0-11.96,5.35-11.96,11.96h0c0,41.59-19.2,54.39-45.63,54.39s-45.55-12.8-45.55-54.39v-119.22c0-6.6,5.35-11.96,11.96-11.96h187.25c6.6,0,11.96-5.35,11.96-11.96Z"/>
      <path d="m355.98,578.76l47.08,61.44c4.16,5.43,2.96,13.29-2.71,17.14-17.51,11.89-36.5,22.03-56.8,30.29-6.08,2.47-13.03-.46-15.55-6.53l-29.52-71.3c-2.56-6.19.49-13.19,6.7-15.7,12.37-5,23.95-11.02,34.7-18,5.28-3.43,12.28-2.33,16.1,2.67Z"/>
      <path d="m235.2,622.54l10.1,76.57c.89,6.78-4.05,12.96-10.87,13.49-10.64.83-21.53,1.27-32.64,1.27-10.07,0-19.94-.33-29.63-1.01-6.87-.48-11.9-6.68-11-13.51l10.11-76.66c.82-6.21,6.28-10.71,12.54-10.35,5.9.34,11.9.49,17.99.49,7.02,0,13.94-.21,20.71-.65,6.31-.41,11.87,4.08,12.7,10.35Z"/>
      <path d="m107.6,610.77l-29.51,71.26c-2.5,6.03-9.39,8.97-15.46,6.56-20.5-8.13-39.65-18.16-57.36-29.94-5.74-3.82-6.99-11.74-2.79-17.2l47.1-61.41c3.79-4.94,10.68-6.08,15.94-2.77,10.93,6.89,22.68,12.82,35.24,17.74,6.28,2.46,9.41,9.51,6.83,15.75Z"/>
    </g>
  </g>
</svg>